# xmcd
#
# Track frame offsets: 
#        150
#        15470
#        37662
#        55329
#        86641
#        100560
#        117556
#        135175
#        155854
#        176407
#
# Disc length: 2679 seconds
#
# Revision: 0
# Processed by: cddbd v1.5.2PL0 Copyright (c) Steve Scherf et al.
# Submitted via: ExactAudioCopy v1.3
#
DISCID=710a750a
DTITLE=Reloaded - I'm Freakin' Reloaded
DYEAR=2013
DGENRE=Blues
TTITLE0=Fire Needs rain
TTITLE1=Beach Drivin' Blues
TTITLE2=I'm Freakin' Reloaded
TTITLE3=Heavenly Taste
TTITLE4=Shoo
TTITLE5=Storm Of Comfort
TTITLE6=Naked In A Small Town
TTITLE7=He Knows Where The Hose Goes
TTITLE8=Squeeze My Jeeves
TTITLE9=My Band Of Love
EXTD=
EXTT0=
EXTT1=
EXTT2=
EXTT3=
EXTT4=
EXTT5=
EXTT6=
EXTT7=
EXTT8=
EXTT9=
PLAYORDER=
